<svg width="16" height="13" viewBox="0 0 16 13" fill="none" xmlns="http://www.w3.org/2000/svg">
<path d="M15.4844 6.63281C15.4844 6.96094 15.3438 7.30469 15.125 7.51562L10.3359 12.2969C10.0938 12.5391 9.79688 12.6719 9.50781 12.6719C8.79688 12.6719 8.32031 12.1797 8.32031 11.5312C8.32031 11.1641 8.48438 10.8906 8.71094 10.6719L10.3672 9.02344L11.7422 7.75781L10.1797 7.83594H2.14062C1.38281 7.83594 0.882812 7.35156 0.882812 6.63281C0.882812 5.91406 1.38281 5.42969 2.14062 5.42969H10.1797L11.7344 5.51562L10.3672 4.25L8.71094 2.59375C8.48438 2.375 8.32031 2.10156 8.32031 1.73438C8.32031 1.08594 8.79688 0.59375 9.50781 0.59375C9.79688 0.59375 10.0938 0.726562 10.3438 0.976562L15.125 5.75C15.3438 5.96875 15.4844 6.3125 15.4844 6.63281Z" fill="currentColor"/>
</svg>
