<svg width="32" height="24" viewBox="0 0 32 24" fill="none" xmlns="http://www.w3.org/2000/svg">
    <path d="M0.081665 4C0.081665 2.93913 0.500747 1.92172 1.24672 1.17157C1.99269 0.421427 3.00444 0 4.0594 0H27.9258C28.9808 0 29.9925 0.421427 30.7385 1.17157C31.4845 1.92172 31.9036 2.93913 31.9036 4V20C31.9036 21.0609 31.4845 22.0783 30.7385 22.8284C29.9925 23.5786 28.9808 24 27.9258 24H4.0594C3.00444 24 1.99269 23.5786 1.24672 22.8284C0.500747 22.0783 0.081665 21.0609 0.081665 20V4ZM4.0594 2C3.53192 2 3.02604 2.21071 2.65306 2.58579C2.28007 2.96086 2.07053 3.46957 2.07053 4V4.434L15.9926 12.834L29.9147 4.434V4C29.9147 3.46957 29.7051 2.96086 29.3322 2.58579C28.9592 2.21071 28.4533 2 27.9258 2H4.0594ZM29.9147 6.766L20.5511 12.416L29.9147 18.21V6.766ZM29.8471 20.518L18.6299 13.576L15.9926 15.166L13.3554 13.576L2.13815 20.516C2.25117 20.9416 2.50076 21.3178 2.84816 21.5861C3.19556 21.8544 3.62134 21.9999 4.0594 22H27.9258C28.3636 22.0001 28.7892 21.8548 29.1366 21.5869C29.4839 21.3189 29.7337 20.9432 29.8471 20.518ZM2.07053 18.21L11.4341 12.416L2.07053 6.766V18.21Z" fill="currentColor"/>
</svg>